HIERARCHY
ROOT Hips
{
	OFFSET 0.00000 0.00000 0.00000
	CHANNELS 6 Xposition Yposition Zposition Zrotation Yrotation Xrotation 
	JOINT LHipJoint
	{
		OFFSET 0 0 0
		CHANNELS 3 Zrotation Yrotation Xrotation
		JOINT LeftUpLeg
		{
			OFFSET 1.48831 -1.59570 0.95625
			CHANNELS 3 Zrotation Yrotation Xrotation
			JOINT LeftLeg
			{
				OFFSET 2.20856 -6.06797 0.00000
				CHANNELS 3 Zrotation Yrotation Xrotation
				JOINT LeftFoot
				{
					OFFSET 2.62924 -7.22379 0.00000
					CHANNELS 3 Zrotation Yrotation Xrotation
					JOINT LeftToeBase
					{
						OFFSET 0.16802 -0.46163 2.41673
						CHANNELS 3 Zrotation Yrotation Xrotation
						End Site
						{
							OFFSET 0.00000 -0.00000 1.23760
						}
					}
				}
			}
		}
	}
	JOINT RHipJoint
	{
		OFFSET 0 0 0
		CHANNELS 3 Zrotation Yrotation Xrotation
		JOINT RightUpLeg
		{
			OFFSET -1.56796 -1.59570 0.95625
			CHANNELS 3 Zrotation Yrotation Xrotation
			JOINT RightLeg
			{
				OFFSET -2.29239 -6.29829 0.00000
				CHANNELS 3 Zrotation Yrotation Xrotation
				JOINT RightFoot
				{
					OFFSET -2.66963 -7.33475 0.00000
					CHANNELS 3 Zrotation Yrotation Xrotation
					JOINT RightToeBase
					{
						OFFSET -0.18185 -0.49964 2.34359
						CHANNELS 3 Zrotation Yrotation Xrotation
						End Site
						{
							OFFSET -0.00000 -0.00000 1.20477
						}
					}
				}
			}
		}
	}
	JOINT LowerBack
	{
		OFFSET 0 0 0
		CHANNELS 3 Zrotation Yrotation Xrotation
		JOINT Spine
		{
			OFFSET 0.03505 2.15832 -0.34324
			CHANNELS 3 Zrotation Yrotation Xrotation
			JOINT Spine1
			{
				OFFSET -0.01089 2.17963 0.04689
				CHANNELS 3 Zrotation Yrotation Xrotation
				JOINT Neck
				{
					OFFSET 0 0 0
					CHANNELS 3 Zrotation Yrotation Xrotation
					JOINT Neck1
					{
						OFFSET 0.04686 1.69404 0.22159
						CHANNELS 3 Zrotation Yrotation Xrotation
						JOINT Head
						{
							OFFSET 0.00265 1.69305 -0.01513
							CHANNELS 3 Zrotation Yrotation Xrotation
							End Site
							{
								OFFSET -0.00415 1.80215 -0.03034
							}
						}
					}
				}
				JOINT LeftShoulder
				{
					OFFSET 0 0 0
					CHANNELS 3 Zrotation Yrotation Xrotation
					JOINT LeftArm
					{
						OFFSET 3.67184 1.11724 -0.19002
						CHANNELS 3 Zrotation Yrotation Xrotation
						JOINT LeftForeArm
						{
							OFFSET 5.17714 -0.00000 -0.00000
							CHANNELS 3 Zrotation Yrotation Xrotation
							JOINT LeftHand
							{
								OFFSET 3.43679 -0.00000 -0.00000
								CHANNELS 3 Zrotation Yrotation Xrotation
								JOINT LeftFingerBase
								{
									OFFSET 0 0 0
									CHANNELS 3 Zrotation Yrotation Xrotation
									JOINT LeftHandIndex1
									{
										OFFSET 0.57312 -0.00000 -0.00000
										CHANNELS 3 Zrotation Yrotation Xrotation
										End Site
										{
											OFFSET 0.46206 -0.00000 -0.00000
										}
									}
								}
								JOINT LThumb
								{
									OFFSET 0 0 0
									CHANNELS 3 Zrotation Yrotation Xrotation
									End Site
									{
										OFFSET 0.46912 -0.00000 0.46912
									}
								}
							}
						}
					}
				}
				JOINT RightShoulder
				{
					OFFSET 0 0 0
					CHANNELS 3 Zrotation Yrotation Xrotation
					JOINT RightArm
					{
						OFFSET -3.59596 0.95831 -0.26050
						CHANNELS 3 Zrotation Yrotation Xrotation
						JOINT RightForeArm
						{
							OFFSET -5.23908 -0.00000 -0.00000
							CHANNELS 3 Zrotation Yrotation Xrotation
							JOINT RightHand
							{
								OFFSET -3.46485 -0.00000 -0.00000
								CHANNELS 3 Zrotation Yrotation Xrotation
								JOINT RightFingerBase
								{
									OFFSET 0 0 0
									CHANNELS 3 Zrotation Yrotation Xrotation
									JOINT RightHandIndex1
									{
										OFFSET -0.60875 -0.00000 -0.00000
										CHANNELS 3 Zrotation Yrotation Xrotation
										End Site
										{
											OFFSET -0.49079 -0.00000 -0.00000
										}
									}
								}
								JOINT RThumb
								{
									OFFSET 0 0 0
									CHANNELS 3 Zrotation Yrotation Xrotation
									End Site
									{
										OFFSET -0.49829 -0.00000 0.49829
									}
								}
							}
						}
					}
				}
			}
		}
	}
}
MOTION
Frames: 7
Frame Time: .0083333
48.9196 16.0537 18.4199 0 0 0 0 0 0 -21 0 0 0 0 0 0 0 0 0 0 0 0 0 0 21 0 0 0 0 0 0 0 0 0 0 0 0 0 0 0 0 0 0 0 0 0 0 -16 0 0 21 0 0 11 0 0 0 -8 0 0 0 0 0 0 0 0 0 0 0 0 0 0 0 0 0 0 0 0 8 0 0 0 0 0 0 0 0 0 0 0 0 0 0 0 0 0
48.9196 16.0537 18.4199 -174.2940 -47.0354 179.6930 0.0000 0.0000 0.0000 -16.5145 4.7991 -13.8532 2.3353 9.5322 27.4747 1.3286 -4.1206 -20.8246 0.0006 0.1590 0.4369 0.0000 0.0000 0.0000 27.7607 4.0008 -13.2977 -3.3244 -11.2025 32.9659 -1.9744 -5.2663 -28.8507 -0.0145 -0.7774 2.1364 4.4129 -0.3640 -4.7980 0.9632 -0.8367 1.6074 -1.5496 -0.3192 4.3121 3.6250 4.5960 -0.5571 -2.1440 5.9391 -7.3286 -1.3734 2.8523 -2.0271 -0.0000 -0.0000 0.0000 -89.3111 -4.3599 13.8580 10.0722 -16.8525 -1.4958 -0.0000 0.0000 -13.3478 15.6620 7.1197 1.9902 -7.1250 0.0000 -0.0000 -9.4416 37.2218 1.8269 -0.0000 -0.0000 0.0000 88.4122 -2.9379 21.1191 -15.2824 24.5380 -3.3423 0.0000 0.0000 1.5037 -19.6751 -4.7186 1.6848 7.1250 -0.0000 -0.0000 5.7937 -34.9426 1.4370
48.9199 16.0531 18.4210 -174.3260 -47.0140 179.7120 0.0000 0.0000 0.0000 -16.5409 4.8349 -13.8528 2.3330 9.5277 27.4604 1.3252 -4.0810 -20.8023 0.0001 0.0732 0.2012 0.0000 0.0000 0.0000 27.7373 4.0010 -13.3118 -3.3272 -11.2068 32.9805 -1.9585 -5.3809 -28.8072 -0.0101 -0.6480 1.7807 4.6488 -0.3166 -5.0533 0.7879 -0.8023 1.8141 -1.8640 -0.2815 4.6701 4.8670 4.7015 -0.3606 -3.5959 6.0121 -7.7443 -2.0718 2.8836 -2.1221 -0.0000 0.0000 0.0000 -89.0386 -4.4474 13.7613 9.9913 -16.7260 -1.4725 -0.0000 0.0000 -13.3837 15.5615 7.0418 1.9553 -7.1250 0.0000 -0.0000 -9.5135 37.1360 1.8613 -0.0000 0.0000 0.0000 88.7069 -2.6408 20.7871 -15.1660 24.3769 -3.2942 0.0000 0.0000 1.7915 -19.9138 -4.5526 1.6471 7.1250 -0.0000 -0.0000 5.5809 -34.7778 1.4062
48.9190 16.0533 18.4217 -174.3510 -47.0022 179.7240 0.0000 0.0000 0.0000 -16.5632 4.8610 -13.8435 2.3303 9.5226 27.4443 1.3234 -4.0617 -20.7901 0.0000 0.0040 0.0110 0.0000 0.0000 0.0000 27.7121 4.0211 -13.3000 -3.3310 -11.2125 33.0000 -1.9671 -5.3256 -28.8343 -0.0121 -0.7105 1.9525 5.0756 -0.2458 -5.4460 0.4524 -0.7535 2.0963 -2.4532 -0.2202 5.1853 5.6288 4.8298 -0.4662 -4.0420 6.1547 -7.9317 -2.3538 2.9374 -2.1253 -0.0000 0.0000 0.0000 -88.5149 -4.6121 13.6367 9.9603 -16.6775 -1.4635 -0.0000 0.0000 -13.3774 15.5798 7.2364 2.0115 -7.1250 0.0000 -0.0000 -9.5292 37.3359 1.8173 -0.0000 0.0000 0.0000 89.2982 -2.2130 20.4604 -15.0784 24.2552 -3.2581 0.0000 0.0000 2.0232 -19.8919 -4.9166 1.7763 7.1250 -0.0000 -0.0000 5.6344 -35.1616 1.3670
48.9187 16.0531 18.4228 -174.3730 -47.0111 179.7660 0.0000 0.0000 0.0000 -16.5864 4.8363 -13.8610 2.3278 9.5179 27.4291 1.3207 -4.0494 -20.7700 0.0000 0.0171 0.0470 0.0000 0.0000 0.0000 27.6881 4.0143 -13.3493 -3.3347 -11.2181 33.0189 -1.9855 -5.2339 -28.9061 -0.0135 -0.7512 2.0646 4.9842 -0.2350 -5.3310 0.5212 -0.7251 1.9924 -2.3258 -0.2164 5.0144 5.5345 4.9209 -0.3172 -4.0242 6.2856 -7.9837 -2.3389 3.0063 -2.1653 -0.0000 -0.0000 0.0000 -88.6755 -4.1172 13.4246 10.0700 -16.8490 -1.4952 -0.0000 0.0000 -13.3458 15.4966 7.5497 2.0863 -7.1250 0.0000 -0.0000 -9.6503 37.6505 1.7656 -0.0000 -0.0000 0.0000 89.1807 -2.3963 19.8890 -15.0104 24.1606 -3.2302 0.0000 0.0000 3.1171 -18.8756 -4.7832 1.6330 7.1250 -0.0000 -0.0000 6.4597 -34.9750 1.5987
48.9183 16.0531 18.4237 -174.4000 -47.0110 179.7940 0.0000 0.0000 0.0000 -16.6119 4.8378 -13.8642 2.3251 9.5128 27.4131 1.3177 -4.0289 -20.7485 0.0000 -0.0203 -0.0558 0.0000 0.0000 0.0000 27.6619 4.0171 -13.3704 -3.3384 -11.2236 33.0378 -1.9993 -5.1735 -28.9642 -0.0142 -0.7704 2.1172 5.0616 -0.2064 -5.3917 0.4588 -0.6942 2.0319 -2.4320 -0.1947 5.0916 5.8194 5.0275 -0.2394 -4.3083 6.4172 -8.1081 -2.4903 3.0691 -2.1971 0.0000 0.0000 0.0000 -88.5958 -3.8805 13.3242 10.1132 -16.9164 -1.5077 -0.0000 0.0000 -13.4082 15.5212 7.6355 2.1133 -7.1250 0.0000 -0.0000 -9.6437 37.7398 1.7430 0.0000 0.0000 0.0000 89.2899 -2.3499 19.4620 -14.9333 24.0531 -3.1987 0.0000 0.0000 3.7808 -18.4128 -4.7923 1.5931 7.1250 -0.0000 -0.0000 6.8421 -34.9638 1.6963
48.9177 16.0531 18.4246 -174.4280 -47.0118 179.8180 0.0000 0.0000 0.0000 -16.6384 4.8356 -13.8588 2.3228 9.5083 27.3987 1.3155 -4.0116 -20.7331 0.0000 -0.0448 -0.1230 0.0000 0.0000 0.0000 27.6351 4.0163 -13.3848 -3.3420 -11.2290 33.0563 -2.0143 -5.1082 -29.0279 -0.0150 -0.7911 2.1741 5.0936 -0.1831 -5.4043 0.4301 -0.6649 2.0427 -2.4772 -0.1778 5.1119 5.9765 5.1338 -0.1679 -4.4749 6.5544 -8.1964 -2.5793 3.1362 -2.2220 -0.0000 0.0000 0.0000 -88.5654 -3.6071 13.2397 10.1588 -16.9876 -1.5210 -0.0000 0.0000 -13.4987 15.5805 7.6593 2.1284 -7.1250 0.0000 -0.0000 -9.5977 37.7680 1.7278 -0.0000 0.0000 0.0000 89.3392 -2.3532 19.0834 -14.8643 23.9568 -3.1706 0.0000 0.0000 4.3570 -18.0035 -4.7937 1.5557 7.1250 -0.0000 -0.0000 7.1792 -34.9468 1.7840
